<svg
    version="1.0"
    xmlns="http://www.w3.org/2000/svg"
    xmlns:xlink="http://www.w3.org/1999/xlink"
    width="512"
    height="512"
    viewBox="0 0 512 512"
  >
    <svg id="global-svg-defs" version="1.0" xmlns="http://www.w3.org/2000/svg" width="0" height="0" viewBox="0 0 340.000000 250.000000" preserveAspectRatio="xMidYMid meet" color-interpolation-filters="sRGB" class="el-tooltip" style="margin: auto;" xmlns:xlink="http://www.w3.org/1999/xlink">
    <defs>
      <pattern id="watermark" patternUnits="userSpaceOnUse" width="100%" height="100%">
        <image xlink:href="https://www.logosc.cn/img/watermark/LOGOSC-watermark.png" x="0" y="0" width="100%" height="100%">
        </image>
      </pattern>
                    <linearGradient id="92" x1="0%" y1="0%" x2="100%" y2="0%">
          <stop offset="0%" stop-color="#fa71cd"></stop>
          <stop offset="100%" stop-color="#9b59b6"></stop>
        </linearGradient>
              <linearGradient id="93" x1="0%" y1="0%" x2="100%" y2="0%">
          <stop offset="0%" stop-color="#f9d423"></stop>
          <stop offset="100%" stop-color="#f83600"></stop>
        </linearGradient>
              <linearGradient id="94" x1="0%" y1="0%" x2="100%" y2="0%">
          <stop offset="0%" stop-color="#0064d2"></stop>
          <stop offset="100%" stop-color="#1cb0f6"></stop>
        </linearGradient>
              <linearGradient id="95" x1="0%" y1="0%" x2="100%" y2="0%">
          <stop offset="0%" stop-color="#f00978"></stop>
          <stop offset="100%" stop-color="#3f51b1"></stop>
        </linearGradient>
              <linearGradient id="96" x1="0%" y1="0%" x2="100%" y2="0%">
          <stop offset="0%" stop-color="#7873f5"></stop>
          <stop offset="100%" stop-color="#ec77ab"></stop>
        </linearGradient>
              <linearGradient id="97" x1="0%" y1="0%" x2="100%" y2="0%">
          <stop offset="0%" stop-color="#f9d423"></stop>
          <stop offset="100%" stop-color="#e14fad"></stop>
        </linearGradient>
              <linearGradient id="98" x1="0%" y1="0%" x2="100%" y2="0%">
          <stop offset="0%" stop-color="#009efd"></stop>
          <stop offset="100%" stop-color="#2af598"></stop>
        </linearGradient>
              <linearGradient id="99" x1="0%" y1="0%" x2="100%" y2="0%">
          <stop offset="0%" stop-color="#ffcc00"></stop>
          <stop offset="100%" stop-color="#00b140"></stop>
        </linearGradient>
              <linearGradient id="100" x1="0%" y1="0%" x2="100%" y2="0%">
          <stop offset="0%" stop-color="#d51007"></stop>
          <stop offset="100%" stop-color="#ff8177"></stop>
        </linearGradient>
              <linearGradient id="102" x1="0%" y1="0%" x2="100%" y2="0%">
          <stop offset="0%" stop-color="#a2b6df"></stop>
          <stop offset="100%" stop-color="#0c3483"></stop>
        </linearGradient>
              <linearGradient id="103" x1="0%" y1="0%" x2="100%" y2="0%">
          <stop offset="0%" stop-color="#7ac5d8"></stop>
          <stop offset="100%" stop-color="#eea2a2"></stop>
        </linearGradient>
              <linearGradient id="104" x1="0%" y1="0%" x2="100%" y2="0%">
          <stop offset="0%" stop-color="#00ecbc"></stop>
          <stop offset="100%" stop-color="#007adf"></stop>
        </linearGradient>
              <linearGradient id="105" x1="0%" y1="0%" x2="100%" y2="0%">
          <stop offset="0%" stop-color="#b88746"></stop>
          <stop offset="100%" stop-color="#fdf5a6"></stop>
        </linearGradient>
              <linearGradient id="107" x1="0%" y1="0%" x2="100%" y2="0%">
          <stop offset="0%" stop-color="#ffbf00"></stop>
          <stop offset="100%" stop-color="#26b5f8"></stop>
        </linearGradient>
          </defs>
  </svg>
    <rect
      x="0"
      y="0"
      width="100%"
      height="100%"
      fill="transparent"
      fill-opacity="1"
    ></rect>
    <svg data-v-0dd9719b="" version="1.0" xmlns="http://www.w3.org/2000/svg" xmlns:xlink="http://www.w3.org/1999/xlink" width="100%" height="100%" viewBox="0 0 100 100" preserveAspectRatio="xMidYMid meet" color-interpolation-filters="sRGB" style="margin: auto;"> <rect data-v-0dd9719b="" x="0" y="0" width="100%" height="100%" fill="#ffffff" fill-opacity="1" class="background" style="display: none;"/> <rect data-v-0dd9719b="" x="0" y="0" width="100%" height="100%" fill="url(#watermark)" fill-opacity="1" class="watermarklayer" style="display: none;"/> <g data-v-0dd9719b="" fill="#333" class="iconsvg-imagesvg"><rect fill="#333" fill-opacity="0" stroke-width="2" x="0" y="0" width="100" height="100" class="image-rect"/> <svg viewBox="0 0 60 60" x="0" y="0" width="100" height="100" class="image-svg-svg bn" style="overflow: visible;"><g hollow-target=""><g><svg fill="#000000" xmlns="http://www.w3.org/2000/svg" xmlns:xlink="http://www.w3.org/1999/xlink" xml:space="preserve" version="1.1" style="shape-rendering: geometricprecision; text-rendering: geometricprecision; overflow: visible;" viewBox="0 0 204 204" x="0" y="0" fill-rule="evenodd" clip-rule="evenodd" width="60" height="60" filtersec="colorsb8565528329" filter="url(#MBEYKDYBEv4YP81rDS69F)"><g transform="scale(1, 1) skewX(0)"><defs><filter id="MBEYKDYBEv4YP81rDS69F"><feColorMatrix type="matrix" values="0 0 0 0 0.19921875  0 0 0 0 0.19921875  0 0 0 0 0.19921875  0 0 0 1 0"/></filter></defs><g><path class="fil0" d="M102 0c56,0 102,46 102,102 0,56 -46,102 -102,102 -56,0 -102,-46 -102,-102 0,-56 46,-102 102,-102zm0 17c-47,0 -85,38 -85,85 0,47 38,86 85,86 47,0 86,-39 86,-86 0,-47 -39,-85 -86,-85z"/></g></g></svg></g> <g filter="url(#colors6072577103)"><svg xmlns="http://www.w3.org/2000/svg" xmlns:xlink="http://www.w3.org/1999/xlink" viewBox="0 0 71.56800000000001 58.104000000000006" width="45" height="45" x="7.5" y="7.5" class="image-svg-letter"><path transform="translate(-2.9520000000000004 51.84)" d="M11.88 6.26Q7.42 6.26 5.22 4.79Q3.02 3.31 2.95 0.07L2.95 0.07Q2.95-0.65 3.74-0.65L3.74-0.65Q4.18-0.65 5.72-0.32Q7.27 0 10.80 0L10.80 0Q19.01 0 25.67-2.27Q32.33-4.54 36.14-8.21Q39.96-11.88 39.96-15.98L39.96-15.98Q39.96-21.02 34.70-22.79Q29.45-24.55 21.31-24.55L21.31-24.55L15.98-24.48Q14.90-20.81 14.08-17.71Q13.25-14.62 12.60-12.31L12.60-12.31Q10.51-4.46 9.72-1.73L9.72-1.73Q7.56-1.73 5.98-2.88Q4.39-4.03 4.39-5.69L4.39-5.69Q4.39-6.98 5.11-9.00L5.11-9.00L5.40-9.86L6.34-12.74Q14.33-37.66 20.02-48.67L20.02-48.67Q16.42-47.88 12.60-45.79L12.60-45.79Q12.24-45.65 11.59-45.32Q10.94-45.00 10.66-45.00L10.66-45.00Q9.94-45.00 8.86-46.04Q7.78-47.09 7.78-47.81L7.78-47.81Q12.74-49.82 16.67-50.83Q20.59-51.84 25.92-51.84L25.92-51.84Q33.05-51.84 38.52-49.39Q43.99-46.94 43.99-40.10L43.99-40.10Q43.99-34.56 39.64-31.28Q35.28-28.01 28.94-26.50L28.94-26.50Q37.08-25.42 40.75-22.10Q44.42-18.79 44.42-14.90L44.42-14.90Q44.42-8.35 38.99-3.53Q33.55 1.30 25.88 3.78Q18.22 6.26 11.88 6.26L11.88 6.26ZM16.70-27.22Q26.06-27.58 32.29-30.78Q38.52-33.98 38.52-40.68L38.52-40.68Q38.52-49.32 24.98-49.32L24.98-49.32Q20.95-41.54 16.70-27.22L16.70-27.22ZM55.15 3.17Q50.62 3.17 48.10 0.72Q45.58-1.73 45.58-5.54L45.58-5.54Q45.58-9.72 48.38-14.58Q51.19-19.44 55.58-22.72Q59.98-25.99 64.22-25.99L64.22-25.99Q66.46-25.99 67.97-24.88Q69.48-23.76 69.48-21.17L69.48-21.17Q69.48-17.71 66.82-14.65Q64.15-11.59 59.94-9.65Q55.73-7.70 51.34-7.20L51.34-7.20Q51.19-6.48 51.19-5.54L51.19-5.54Q51.19-3.67 52.24-1.80Q53.28 0.07 56.74 0.07L56.74 0.07Q61.13 0.07 65.70-3.49Q70.27-7.06 73.08-12.38L73.08-12.38L74.52-11.23Q71.64-4.75 66.28-0.79Q60.91 3.17 55.15 3.17L55.15 3.17ZM52.13-9.86Q54.72-10.15 57.92-11.95Q61.13-13.75 63.36-16.38Q65.59-19.01 65.59-21.53L65.59-21.53Q65.59-22.32 65.30-22.61Q65.02-22.90 64.37-22.90L64.37-22.90Q62.28-22.90 59.80-20.92Q57.31-18.94 55.22-15.91Q53.14-12.89 52.13-9.86L52.13-9.86Z"/></svg></g></g></svg> <defs><filter id="colors6072577103"><feColorMatrix type="matrix" values="0 0 0 0 0.19921875  0 0 0 0 0.19921875  0 0 0 0 0.19921875  0 0 0 1 0" class="icon-fecolormatrix"/></filter> <filter id="colorsf6969290597"><feColorMatrix type="matrix" values="0 0 0 0 0.99609375  0 0 0 0 0.99609375  0 0 0 0 0.99609375  0 0 0 1 0" class="icon-fecolormatrix"/></filter> <filter id="colorsb8565528329"><feColorMatrix type="matrix" values="0 0 0 0 0  0 0 0 0 0  0 0 0 0 0  0 0 0 1 0" class="icon-fecolormatrix"/></filter></defs></g><defs v-gra="od"/></svg>
  </svg>